<?xml version="1.0" standalone="no"?><!DOCTYPE svg PUBLIC "-//W3C//DTD SVG 1.1//EN" "http://www.w3.org/Graphics/SVG/1.1/DTD/svg11.dtd"><svg width="100%" height="100%" viewBox="0 0 246 208" version="1.1" xmlns="http://www.w3.org/2000/svg" xmlns:xlink="http://www.w3.org/1999/xlink" xml:space="preserve" style="fill-rule:evenodd;clip-rule:evenodd;stroke-linecap:round;stroke-linejoin:round;stroke-miterlimit:1.41421;"><g><path d="M142.254,0.109c57.127,0 103.506,46.379 103.506,103.505c0,57.127 -46.379,103.506 -103.506,103.506c-57.126,0 -103.505,-46.379 -103.505,-103.506c0,-57.126 46.379,-103.505 103.505,-103.505ZM142.37,76.583c14.855,0 26.916,12.061 26.916,26.916c0,14.855 -12.061,26.916 -26.916,26.916c-14.855,0 -26.916,-12.061 -26.916,-26.916c0,-14.855 12.061,-26.916 26.916,-26.916Z" style="fill:#333;"/><circle cx="142.601" cy="103.73" r="2.426" style="fill:#f8f7f5;"/></g><g><path d="M100.539,177.315c-5.533,-3.462 -39.653,-32.967 -46.738,-43.707c-8.58,-13.005 -9.322,-45.476 -15.201,-59.28c-6.496,-15.255 -24.357,-57.195 -27.712,-65.074" style="fill:none;stroke-width:14px;stroke:#848484;"/><path d="M100.539,177.315c-5.533,-3.462 -39.653,-32.967 -46.738,-43.707c-8.58,-13.005 -9.322,-45.476 -15.201,-59.28c-6.496,-15.255 -24.357,-57.195 -27.712,-65.074" style="fill:none;stroke-width:9px;stroke:#101010;"/><path d="M18.047,3.081c-0.641,-1.504 -2.381,-2.205 -3.885,-1.564l-10.919,4.649c-1.503,0.641 -2.204,2.382 -1.564,3.885l7.415,17.412c0.641,1.504 2.381,2.205 3.885,1.564l10.919,-4.649c1.503,-0.641 2.204,-2.381 1.564,-3.885l-7.415,-17.412Z" style="fill:#101010;stroke-width:2.5px;stroke:#848484;"/></g></svg>