<svg xmlns="http://www.w3.org/2000/svg" width="154" height="154" viewBox="0 0 154 154" xmlns:xlink="http://www.w3.org/1999/xlink">
  <defs>
    <path id="a" d="M90,159 C132.525926,159 167,124.525926 167,82 C167,39.4740743 132.525926,5 90,5 C47.4740743,5 13,39.4740743 13,82 C13,124.525926 47.4740743,159 90,159 Z M90,102 C101.045695,102 110,93.045695 110,82 C110,70.954305 101.045695,62 90,62 C78.954305,62 70,70.954305 70,82 C70,93.045695 78.954305,102 90,102 Z"/>
    <mask id="b" width="154" height="154" x="0" y="0" fill="white">
      <use xlink:href="#a"/>
    </mask>
    <path id="d" d="M14.2178423,9.9802903 C14.0975313,9.43889087 14.4325333,8.90018455 14.9771129,8.77451233 L26.0228871,6.22548758 C26.5625317,6.10095422 27.1570691,6.418851 27.3500095,6.93335852 L29.6499905,13.0666413 C29.8432954,13.5821209 29.6789475,14.3210523 29.289042,14.7109579 L27.0000004,16.9999997 L20,18.9999997 L16.9682883,18.2420719 C16.4335174,18.1083791 15.9035357,17.5659111 15.7821576,17.0197094 L14.2178423,9.9802903 Z"/>
    <filter id="c" width="200%" height="200%" x="-50%" y="-50%" filterUnits="objectBoundingBox">
      <feOffset dx="2" dy="3" in="SourceAlpha" result="shadowOffsetOuter1"/>
      <feGaussianBlur stdDeviation="2" in="shadowOffsetOuter1" result="shadowBlurOuter1"/>
      <feColorMatrix values="0 0 0 0 0 0 0 0 0 0 0 0 0 0 0 0 0 0 0.5 0" in="shadowBlurOuter1"/>
    </filter>
    <path id="f" d="M33.0301303,103.16645 C25.2995026,95.5193623 15.3992177,84.3702702 13.2946903,75.5329985 C9.88766527,61.2263156 14.5839884,48.499788 10.4694702,32.9732386 C6.35495204,17.4466892 0.199965281,2.02387917 0.199965281,2.02387917 L4.83295049,0.174412357 C4.83295049,0.174412357 11.335813,15.950198 15.4503314,31.4767467 C19.5648499,47.0032954 14.5206515,59.376846 17.9276757,73.6835317 C20.0356992,82.535488 29.5443878,92.8796315 36.8849011,99.8308862 L33.0301303,103.16645 Z"/>
    <filter id="e" width="200%" height="200%" x="-50%" y="-50%" filterUnits="objectBoundingBox">
      <feOffset dx="2" dy="3" in="SourceAlpha" result="shadowOffsetOuter1"/>
      <feGaussianBlur stdDeviation="2" in="shadowOffsetOuter1" result="shadowBlurOuter1"/>
      <feColorMatrix values="0 0 0 0 0 0 0 0 0 0 0 0 0 0 0 0 0 0 0.5 0" in="shadowBlurOuter1"/>
    </filter>
    <path id="h" d="M33.0999864,103.235514 C25.3592653,95.5866046 15.4055621,84.3969115 13.2946903,75.5329985 C9.88766527,61.2263156 14.5839884,48.499788 10.4694702,32.9732386 C6.35495204,17.4466892 0.199965281,2.02387917 0.199965281,2.02387917 L4.83295049,0.174412357 C4.83295049,0.174412357 11.335813,15.950198 15.4503314,31.4767467 C19.5648499,47.0032954 14.5206515,59.376846 17.9276757,73.6835317 C20.0398467,82.5529042 29.581833,92.9203413 36.9282031,99.8718764 L33.0999864,103.235514 Z"/>
    <filter id="g" width="200%" height="200%" x="-50%" y="-50%" filterUnits="objectBoundingBox">
      <feMorphology radius="2" in="SourceAlpha" result="shadowSpreadInner1"/>
      <feGaussianBlur stdDeviation="2" in="shadowSpreadInner1" result="shadowBlurInner1"/>
      <feOffset in="shadowBlurInner1" result="shadowOffsetInner1"/>
      <feComposite in="shadowOffsetInner1" in2="SourceAlpha" operator="arithmetic" k2="-1" k3="1" result="shadowInnerInner1"/>
      <feColorMatrix values="0 0 0 0 0.901960784 0 0 0 0 0.901960784 0 0 0 0 0.901960784 0 0 0 0.5 0" in="shadowInnerInner1"/>
    </filter>
    <path id="j" d="M33.1031077,103.238599 C25.3619413,95.5896128 15.4058458,84.398103 13.2946903,75.5329985 C9.88766527,61.2263156 14.5839884,48.499788 10.4694702,32.9732386 C6.35495204,17.4466892 0.199965281,2.02387917 0.199965281,2.02387917 L4.83295049,0.174412357 C4.83295049,0.174412357 11.335813,15.950198 15.4503314,31.4767467 C19.5648499,47.0032954 14.5206515,59.376846 17.9276757,73.6835317 C20.0458866,82.5782667 29.6364657,92.9796464 36.9911714,99.9314277 L33.1031077,103.238599 Z"/>
    <filter id="i" width="200%" height="200%" x="-50%" y="-50%" filterUnits="objectBoundingBox">
      <feMorphology radius="1" in="SourceAlpha" result="shadowSpreadInner1"/>
      <feGaussianBlur stdDeviation="1.5" in="shadowSpreadInner1" result="shadowBlurInner1"/>
      <feOffset in="shadowBlurInner1" result="shadowOffsetInner1"/>
      <feComposite in="shadowOffsetInner1" in2="SourceAlpha" operator="arithmetic" k2="-1" k3="1" result="shadowInnerInner1"/>
      <feColorMatrix values="0 0 0 0 0.305590986 0 0 0 0 0.305590986 0 0 0 0 0.305590986 0 0 0 0.5 0" in="shadowInnerInner1"/>
    </filter>
    <path id="l" d="M7.77435443,11.03635 L0.614600234,11.4309527 L0.614600234,10.0201833 L7.77435443,9.62558144 L7.77435442,1.26190224 C7.77435442,0.708332493 8.2253296,0.259575546 8.76513239,0.259575546 L12.7835765,0.259575546 C13.330768,0.259575546 13.7743544,0.708495751 13.7743544,1.26705952 L13.7743544,14.2520916 C13.7743544,14.8085096 13.3233792,15.2595755 12.7835765,15.2595755 L8.76513239,15.2595755 C8.21794083,15.2595755 7.77435442,14.8076164 7.77435442,14.25873 L7.77435443,11.03635 Z M10.6933093,3.10057663 C11.2455941,3.10057663 11.6933093,2.65286138 11.6933093,2.10057663 C11.6933093,1.54829188 11.2455941,1.10057663 10.6933093,1.10057663 C10.1410246,1.10057663 9.69330932,1.54829188 9.69330932,2.10057663 C9.69330932,2.65286138 10.1410246,3.10057663 10.6933093,3.10057663 Z M10.960197,7.41724788 C11.7886241,7.41724788 12.460197,6.745675 12.460197,5.91724788 C12.460197,5.08882075 11.7886241,4.41724788 10.960197,4.41724788 C10.1317698,4.41724788 9.46019697,5.08882075 9.46019697,5.91724788 C9.46019697,6.745675 10.1317698,7.41724788 10.960197,7.41724788 Z"/>
    <filter id="k" width="200%" height="200%" x="-50%" y="-50%" filterUnits="objectBoundingBox">
      <feOffset dx="2" dy="3" in="SourceAlpha" result="shadowOffsetOuter1"/>
      <feGaussianBlur stdDeviation="2" in="shadowOffsetOuter1" result="shadowBlurOuter1"/>
      <feColorMatrix values="0 0 0 0 0 0 0 0 0 0 0 0 0 0 0 0 0 0 0.5 0" in="shadowBlurOuter1"/>
    </filter>
    <path id="n" d="M7.77435443,11.03635 L0.614600234,11.4309527 L0.614600234,10.0201833 L7.77435443,9.62558144 L7.77435442,1.26190224 C7.77435442,0.708332493 8.2253296,0.259575546 8.76513239,0.259575546 L12.7835765,0.259575546 C13.330768,0.259575546 13.7743544,0.708495751 13.7743544,1.26705952 L13.7743544,14.2520916 C13.7743544,14.8085096 13.3233792,15.2595755 12.7835765,15.2595755 L8.76513239,15.2595755 C8.21794083,15.2595755 7.77435442,14.8076164 7.77435442,14.25873 L7.77435443,11.03635 Z M10.6933093,3.10057663 C11.2455941,3.10057663 11.6933093,2.65286138 11.6933093,2.10057663 C11.6933093,1.54829188 11.2455941,1.10057663 10.6933093,1.10057663 C10.1410246,1.10057663 9.69330932,1.54829188 9.69330932,2.10057663 C9.69330932,2.65286138 10.1410246,3.10057663 10.6933093,3.10057663 Z M10.960197,7.41724788 C11.7886241,7.41724788 12.460197,6.745675 12.460197,5.91724788 C12.460197,5.08882075 11.7886241,4.41724788 10.960197,4.41724788 C10.1317698,4.41724788 9.46019697,5.08882075 9.46019697,5.91724788 C9.46019697,6.745675 10.1317698,7.41724788 10.960197,7.41724788 Z"/>
    <filter id="m" width="200%" height="200%" x="-50%" y="-50%" filterUnits="objectBoundingBox">
      <feMorphology radius="2" in="SourceAlpha" result="shadowSpreadInner1"/>
      <feGaussianBlur stdDeviation="2" in="shadowSpreadInner1" result="shadowBlurInner1"/>
      <feOffset in="shadowBlurInner1" result="shadowOffsetInner1"/>
      <feComposite in="shadowOffsetInner1" in2="SourceAlpha" operator="arithmetic" k2="-1" k3="1" result="shadowInnerInner1"/>
      <feColorMatrix values="0 0 0 0 0.901960784 0 0 0 0 0.901960784 0 0 0 0 0.901960784 0 0 0 0.5 0" in="shadowInnerInner1"/>
    </filter>
    <path id="p" d="M7.77435443,11.03635 L0.614600234,11.4309527 L0.614600234,10.0201833 L7.77435443,9.62558144 L7.77435442,1.26190224 C7.77435442,0.708332493 8.2253296,0.259575546 8.76513239,0.259575546 L12.7835765,0.259575546 C13.330768,0.259575546 13.7743544,0.708495751 13.7743544,1.26705952 L13.7743544,14.2520916 C13.7743544,14.8085096 13.3233792,15.2595755 12.7835765,15.2595755 L8.76513239,15.2595755 C8.21794083,15.2595755 7.77435442,14.8076164 7.77435442,14.25873 L7.77435443,11.03635 Z M10.6933093,3.10057663 C11.2455941,3.10057663 11.6933093,2.65286138 11.6933093,2.10057663 C11.6933093,1.54829188 11.2455941,1.10057663 10.6933093,1.10057663 C10.1410246,1.10057663 9.69330932,1.54829188 9.69330932,2.10057663 C9.69330932,2.65286138 10.1410246,3.10057663 10.6933093,3.10057663 Z M10.960197,7.41724788 C11.7886241,7.41724788 12.460197,6.745675 12.460197,5.91724788 C12.460197,5.08882075 11.7886241,4.41724788 10.960197,4.41724788 C10.1317698,4.41724788 9.46019697,5.08882075 9.46019697,5.91724788 C9.46019697,6.745675 10.1317698,7.41724788 10.960197,7.41724788 Z"/>
    <filter id="o" width="200%" height="200%" x="-50%" y="-50%" filterUnits="objectBoundingBox">
      <feMorphology radius="1" in="SourceAlpha" result="shadowSpreadInner1"/>
      <feGaussianBlur stdDeviation="1.5" in="shadowSpreadInner1" result="shadowBlurInner1"/>
      <feOffset in="shadowBlurInner1" result="shadowOffsetInner1"/>
      <feComposite in="shadowOffsetInner1" in2="SourceAlpha" operator="arithmetic" k2="-1" k3="1" result="shadowInnerInner1"/>
      <feColorMatrix values="0 0 0 0 0.305590986 0 0 0 0 0.305590986 0 0 0 0 0.305590986 0 0 0 0.5 0" in="shadowInnerInner1"/>
    </filter>
    <rect id="r" width="15" height="10" x=".8" y=".696" rx="1"/>
    <filter id="q" width="200%" height="200%" x="-50%" y="-50%" filterUnits="objectBoundingBox">
      <feMorphology radius="2" in="SourceAlpha" result="shadowSpreadInner1"/>
      <feGaussianBlur stdDeviation="2" in="shadowSpreadInner1" result="shadowBlurInner1"/>
      <feOffset in="shadowBlurInner1" result="shadowOffsetInner1"/>
      <feComposite in="shadowOffsetInner1" in2="SourceAlpha" operator="arithmetic" k2="-1" k3="1" result="shadowInnerInner1"/>
      <feColorMatrix values="0 0 0 0 0.901960784 0 0 0 0 0.901960784 0 0 0 0 0.901960784 0 0 0 0.5 0" in="shadowInnerInner1"/>
    </filter>
    <rect id="t" width="15" height="9" x=".8" y="1" rx="1"/>
    <filter id="s" width="200%" height="200%" x="-50%" y="-50%" filterUnits="objectBoundingBox">
      <feMorphology radius="1" in="SourceAlpha" result="shadowSpreadInner1"/>
      <feGaussianBlur stdDeviation="1.5" in="shadowSpreadInner1" result="shadowBlurInner1"/>
      <feOffset in="shadowBlurInner1" result="shadowOffsetInner1"/>
      <feComposite in="shadowOffsetInner1" in2="SourceAlpha" operator="arithmetic" k2="-1" k3="1" result="shadowInnerInner1"/>
      <feColorMatrix values="0 0 0 0 0.305590986 0 0 0 0 0.305590986 0 0 0 0 0.305590986 0 0 0 0.5 0" in="shadowInnerInner1"/>
    </filter>
    <polygon id="u" points="5.154 6.097 .983 11.105 1.8 10.475 10.449 8.48 22.935 5.019 34.952 2.052 31.983 2.511 26.051 0"/>
    <rect id="x" width="15" height="10" x=".762" y=".972" rx="1"/>
    <filter id="w" width="200%" height="200%" x="-50%" y="-50%" filterUnits="objectBoundingBox">
      <feMorphology radius="1" in="SourceAlpha" result="shadowSpreadInner1"/>
      <feGaussianBlur stdDeviation="1.5" in="shadowSpreadInner1" result="shadowBlurInner1"/>
      <feOffset in="shadowBlurInner1" result="shadowOffsetInner1"/>
      <feComposite in="shadowOffsetInner1" in2="SourceAlpha" operator="arithmetic" k2="-1" k3="1" result="shadowInnerInner1"/>
      <feColorMatrix values="0 0 0 0 0.305590986 0 0 0 0 0.305590986 0 0 0 0 0.305590986 0 0 0 0.5 0" in="shadowInnerInner1"/>
    </filter>
    <polygon id="y" points="0 10.092 1.99 15 35.918 4.857 37 0"/>
    <path id="B" d="M0.761600292,1.97272041 C0.761600292,1.42000433 1.2105205,0.97193942 1.76908427,0.97193942 L14.7541163,0.97193942 C15.3105344,0.97193942 15.7616003,1.42171456 15.7616003,1.97272041 L15.7616003,9.84191299 C15.7616003,10.3946291 15.350352,11.013604 14.8444361,11.2238568 L12.051255,12.3846706 L4.77114848,12.3846706 L1.69154921,11.2003302 C1.17795261,11.0028132 0.761600292,10.3929188 0.761600292,9.84191299 L0.761600292,1.97272041 Z"/>
    <filter id="A" width="200%" height="200%" x="-50%" y="-50%" filterUnits="objectBoundingBox">
      <feMorphology radius="1" in="SourceAlpha" result="shadowSpreadInner1"/>
      <feGaussianBlur stdDeviation="1.5" in="shadowSpreadInner1" result="shadowBlurInner1"/>
      <feOffset in="shadowBlurInner1" result="shadowOffsetInner1"/>
      <feComposite in="shadowOffsetInner1" in2="SourceAlpha" operator="arithmetic" k2="-1" k3="1" result="shadowInnerInner1"/>
      <feColorMatrix values="0 0 0 0 0.305590986 0 0 0 0 0.305590986 0 0 0 0 0.305590986 0 0 0 0.5 0" in="shadowInnerInner1"/>
    </filter>
  </defs>
  <g fill="none" fill-rule="evenodd" transform="translate(-13 -5)">
    <circle cx="42" cy="34" r="2" fill="#F9F9F9" transform="translate(48 48)"/>
    <use fill="#FCFCFA" stroke="#FCFCFA" stroke-width="6" mask="url(#b)" xlink:href="#a"/>
    <path fill="#F9F9F9" d="M90,115 C108.225397,115 123,100.225397 123,82 C123,63.7746033 108.225397,49 90,49 C71.7746033,49 57,63.7746033 57,82 C57,100.225397 71.7746033,115 90,115 Z M90,102 C101.045695,102 110,93.045695 110,82 C110,70.954305 101.045695,62 90,62 C78.954305,62 70,70.954305 70,82 C70,93.045695 78.954305,102 90,102 Z"/>
    <use fill="black" filter="url(#c)" xlink:href="#d"/>
    <g transform="rotate(4 -127.174 275.364)">
      <use fill="black" filter="url(#e)" xlink:href="#f"/>
      <use fill="#FAFAFA" xlink:href="#f"/>
      <use fill="black" filter="url(#g)" xlink:href="#h"/>
      <g fill="black">
        <use filter="url(#i)" xlink:href="#j"/>
      </g>
    </g>
    <g transform="rotate(-41 179.246 9.153)">
      <polygon fill="#008402" points="8.239 13.653 13.239 10.395 13.239 16.395 8.239 16.395"/>
      <use fill="black" filter="url(#k)" xlink:href="#l"/>
      <use fill="#FAFAFA" xlink:href="#l"/>
      <use fill="black" filter="url(#m)" xlink:href="#n"/>
      <g fill="black">
        <use filter="url(#o)" xlink:href="#p"/>
      </g>
    </g>
    <g transform="rotate(-1 88.793 -54.62)">
      <g transform="rotate(-15 33.336 -37.902)">
        <rect width="15" height="10" x=".8" y=".696" fill="#FAFAFA" rx="1"/>
        <use fill="black" filter="url(#q)" xlink:href="#r"/>
        <use fill="black" filter="url(#s)" xlink:href="#t"/>
      </g>
      <g transform="translate(3.032 1.07)">
        <mask id="v" fill="white">
          <use xlink:href="#u"/>
        </mask>
        <g transform="rotate(-15 26.69 -26.93)" mask="url(#v)">
          <rect width="15" height="10" x=".762" y=".972" fill="#333333" rx="1"/>
          <use fill="black" filter="url(#w)" xlink:href="#x" opacity=".329"/>
        </g>
      </g>
      <g transform="translate(3.891 8.174)">
        <mask id="z" fill="white">
          <use xlink:href="#y"/>
        </mask>
        <g transform="rotate(-15 -.717 -27.22)" mask="url(#z)">
          <path fill="#333333" d="M0.761600292,1.97272041 C0.761600292,1.42000433 1.2105205,0.97193942 1.76908427,0.97193942 L14.7541163,0.97193942 C15.3105344,0.97193942 15.7616003,1.42171456 15.7616003,1.97272041 L15.7616003,9.84191299 C15.7616003,10.3946291 15.350352,11.013604 14.8444361,11.2238568 L12.051255,12.3846706 L4.77114848,12.3846706 L1.69154921,11.2003302 C1.17795261,11.0028132 0.761600292,10.3929188 0.761600292,9.84191299 L0.761600292,1.97272041 Z"/>
          <use fill="black" filter="url(#A)" xlink:href="#B" opacity=".329"/>
        </g>
      </g>
    </g>
  </g>
</svg>
