<?xml version="1.0" encoding="UTF-8"?><svg width="16px" height="16px" viewBox="0 0 16 16" version="1.1" xmlns="http://www.w3.org/2000/svg" xmlns:xlink="http://www.w3.org/1999/xlink"><g stroke="none" stroke-width="1" fill="none" fill-rule="evenodd" stroke-linecap="square"><g stroke="#000000"><path d="M-1.37955379,9.86794435 C-0.459889377,13.6907669 -3.81127198e-05,15.5666678 2.22044605e-16,15.4956471 C0.00238773056,11.0462614 0.481279047,0.502502441 0.722167969,0.502502441 C0.96305689,0.502502441 0.915449034,15.1945791 1.17825009,15.1945791 C1.44105115,15.1945791 1.95030947,2.74935253 2.35095931,2.74935253 C2.75160915,2.74935253 3.60784002,12.444236 4.17443043,12.444236 C4.74102084,12.444236 5.76226105,5.69946855 6.61356354,5.69946855 C7.46486604,5.69946855 8.31309498,9.86794435 9.54719847,9.86794435 C10.781302,9.86794435 11.9333572,7.70708237 13.0844582,7.70708237 C13.8518588,7.70708237 14.8237061,8.01864577 16,8.64177256"></path></g></g></svg>