<?xml version="1.0" encoding="UTF-8"?>
<svg width="16px" height="16px" viewBox="0 0 16 16" version="1.1" xmlns="http://www.w3.org/2000/svg" xmlns:xlink="http://www.w3.org/1999/xlink"><g stroke="none" stroke-width="1" fill="none" fill-rule="evenodd"><path d="M6.5,0 L6.50016266,3.17389342 C6.98163245,3.06017514 7.4837889,3 8,3 C11.5898509,3 14.5,5.91014913 14.5,9.5 C14.5,13.0898509 11.5898509,16 8,16 C4.57849793,16 1.77444215,13.3563982 1.51897008,10.000332 L1.5,10 L1.5,0 L6.5,0 Z M8,7.81168831 C7.0675712,7.81168831 6.31168831,8.5675712 6.31168831,9.5 C6.31168831,10.4324288 7.0675712,11.1883117 8,11.1883117 C8.9324288,11.1883117 9.68831169,10.4324288 9.68831169,9.5 C9.68831169,8.5675712 8.9324288,7.81168831 8,7.81168831 Z" fill="#000000"></path></g></svg>