<?xml version="1.0" encoding="UTF-8" standalone="no"?>
<svg width="154px" height="154px" viewBox="0 0 154 154" version="1.1" xmlns="http://www.w3.org/2000/svg" xmlns:xlink="http://www.w3.org/1999/xlink">
    <!-- Generator: Sketch 3.7.2 (28276) - http://www.bohemiancoding.com/sketch -->
    <title>logo</title>
    <desc>Created with Sketch.</desc>
    <defs>
        <path d="M90,159 C132.525926,159 167,124.525926 167,82 C167,39.4740743 132.525926,5 90,5 C47.4740743,5 13,39.4740743 13,82 C13,124.525926 47.4740743,159 90,159 Z M90,102 C101.045695,102 110,93.045695 110,82 C110,70.954305 101.045695,62 90,62 C78.954305,62 70,70.954305 70,82 C70,93.045695 78.954305,102 90,102 Z" id="path-1"></path>
        <mask id="mask-2" maskContentUnits="userSpaceOnUse" maskUnits="objectBoundingBox" x="0" y="0" width="154" height="154" fill="white">
            <use xlink:href="#path-1"></use>
        </mask>
        <path d="M14.2178423,9.9802903 C14.0975313,9.43889087 14.4325333,8.90018455 14.9771129,8.77451233 L26.0228871,6.22548758 C26.5625317,6.10095422 27.1570691,6.418851 27.3500095,6.93335852 L29.6499905,13.0666413 C29.8432954,13.5821209 29.6789475,14.3210523 29.289042,14.7109579 L27.0000004,16.9999997 L20,18.9999997 L16.9682883,18.2420719 C16.4335174,18.1083791 15.9035357,17.5659111 15.7821576,17.0197094 L14.2178423,9.9802903 Z" id="path-3"></path>
        <filter x="-50%" y="-50%" width="200%" height="200%" filterUnits="objectBoundingBox" id="filter-4">
            <feOffset dx="2" dy="3" in="SourceAlpha" result="shadowOffsetOuter1"></feOffset>
            <feGaussianBlur stdDeviation="2" in="shadowOffsetOuter1" result="shadowBlurOuter1"></feGaussianBlur>
            <feColorMatrix values="0 0 0 0 0   0 0 0 0 0   0 0 0 0 0  0 0 0 0.5 0" type="matrix" in="shadowBlurOuter1"></feColorMatrix>
        </filter>
        <path d="M33.0301303,103.16645 C25.2995026,95.5193623 15.3992177,84.3702702 13.2946903,75.5329985 C9.88766527,61.2263156 14.5839884,48.499788 10.4694702,32.9732386 C6.35495204,17.4466892 0.199965281,2.02387917 0.199965281,2.02387917 L4.83295049,0.174412357 C4.83295049,0.174412357 11.335813,15.950198 15.4503314,31.4767467 C19.5648499,47.0032954 14.5206515,59.376846 17.9276757,73.6835317 C20.0356992,82.535488 29.5443878,92.8796315 36.8849011,99.8308862 L33.0301303,103.16645 Z" id="path-5"></path>
        <filter x="-50%" y="-50%" width="200%" height="200%" filterUnits="objectBoundingBox" id="filter-6">
            <feOffset dx="2" dy="3" in="SourceAlpha" result="shadowOffsetOuter1"></feOffset>
            <feGaussianBlur stdDeviation="2" in="shadowOffsetOuter1" result="shadowBlurOuter1"></feGaussianBlur>
            <feColorMatrix values="0 0 0 0 0   0 0 0 0 0   0 0 0 0 0  0 0 0 0.5 0" type="matrix" in="shadowBlurOuter1"></feColorMatrix>
        </filter>
        <path d="M33.0999864,103.235514 C25.3592653,95.5866046 15.4055621,84.3969115 13.2946903,75.5329985 C9.88766527,61.2263156 14.5839884,48.499788 10.4694702,32.9732386 C6.35495204,17.4466892 0.199965281,2.02387917 0.199965281,2.02387917 L4.83295049,0.174412357 C4.83295049,0.174412357 11.335813,15.950198 15.4503314,31.4767467 C19.5648499,47.0032954 14.5206515,59.376846 17.9276757,73.6835317 C20.0398467,82.5529042 29.581833,92.9203413 36.9282031,99.8718764 L33.0999864,103.235514 Z" id="path-7"></path>
        <filter x="-50%" y="-50%" width="200%" height="200%" filterUnits="objectBoundingBox" id="filter-8">
            <feMorphology radius="2" operator="erode" in="SourceAlpha" result="shadowSpreadInner1"></feMorphology>
            <feGaussianBlur stdDeviation="2" in="shadowSpreadInner1" result="shadowBlurInner1"></feGaussianBlur>
            <feOffset dx="0" dy="0" in="shadowBlurInner1" result="shadowOffsetInner1"></feOffset>
            <feComposite in="shadowOffsetInner1" in2="SourceAlpha" operator="arithmetic" k2="-1" k3="1" result="shadowInnerInner1"></feComposite>
            <feColorMatrix values="0 0 0 0 0.901960784   0 0 0 0 0.901960784   0 0 0 0 0.901960784  0 0 0 0.5 0" type="matrix" in="shadowInnerInner1"></feColorMatrix>
        </filter>
        <path d="M33.1031077,103.238599 C25.3619413,95.5896128 15.4058458,84.398103 13.2946903,75.5329985 C9.88766527,61.2263156 14.5839884,48.499788 10.4694702,32.9732386 C6.35495204,17.4466892 0.199965281,2.02387917 0.199965281,2.02387917 L4.83295049,0.174412357 C4.83295049,0.174412357 11.335813,15.950198 15.4503314,31.4767467 C19.5648499,47.0032954 14.5206515,59.376846 17.9276757,73.6835317 C20.0458866,82.5782667 29.6364657,92.9796464 36.9911714,99.9314277 L33.1031077,103.238599 Z" id="path-9"></path>
        <filter x="-50%" y="-50%" width="200%" height="200%" filterUnits="objectBoundingBox" id="filter-10">
            <feMorphology radius="1" operator="erode" in="SourceAlpha" result="shadowSpreadInner1"></feMorphology>
            <feGaussianBlur stdDeviation="1.5" in="shadowSpreadInner1" result="shadowBlurInner1"></feGaussianBlur>
            <feOffset dx="0" dy="0" in="shadowBlurInner1" result="shadowOffsetInner1"></feOffset>
            <feComposite in="shadowOffsetInner1" in2="SourceAlpha" operator="arithmetic" k2="-1" k3="1" result="shadowInnerInner1"></feComposite>
            <feColorMatrix values="0 0 0 0 0.305590986   0 0 0 0 0.305590986   0 0 0 0 0.305590986  0 0 0 0.5 0" type="matrix" in="shadowInnerInner1"></feColorMatrix>
        </filter>
        <path d="M7.77435443,11.03635 L0.614600234,11.4309527 L0.614600234,10.0201833 L7.77435443,9.62558144 L7.77435442,1.26190224 C7.77435442,0.708332493 8.2253296,0.259575546 8.76513239,0.259575546 L12.7835765,0.259575546 C13.330768,0.259575546 13.7743544,0.708495751 13.7743544,1.26705952 L13.7743544,14.2520916 C13.7743544,14.8085096 13.3233792,15.2595755 12.7835765,15.2595755 L8.76513239,15.2595755 C8.21794083,15.2595755 7.77435442,14.8076164 7.77435442,14.25873 L7.77435443,11.03635 Z M10.6933093,3.10057663 C11.2455941,3.10057663 11.6933093,2.65286138 11.6933093,2.10057663 C11.6933093,1.54829188 11.2455941,1.10057663 10.6933093,1.10057663 C10.1410246,1.10057663 9.69330932,1.54829188 9.69330932,2.10057663 C9.69330932,2.65286138 10.1410246,3.10057663 10.6933093,3.10057663 Z M10.960197,7.41724788 C11.7886241,7.41724788 12.460197,6.745675 12.460197,5.91724788 C12.460197,5.08882075 11.7886241,4.41724788 10.960197,4.41724788 C10.1317698,4.41724788 9.46019697,5.08882075 9.46019697,5.91724788 C9.46019697,6.745675 10.1317698,7.41724788 10.960197,7.41724788 Z" id="path-11"></path>
        <filter x="-50%" y="-50%" width="200%" height="200%" filterUnits="objectBoundingBox" id="filter-12">
            <feOffset dx="2" dy="3" in="SourceAlpha" result="shadowOffsetOuter1"></feOffset>
            <feGaussianBlur stdDeviation="2" in="shadowOffsetOuter1" result="shadowBlurOuter1"></feGaussianBlur>
            <feColorMatrix values="0 0 0 0 0   0 0 0 0 0   0 0 0 0 0  0 0 0 0.5 0" type="matrix" in="shadowBlurOuter1"></feColorMatrix>
        </filter>
        <path d="M7.77435443,11.03635 L0.614600234,11.4309527 L0.614600234,10.0201833 L7.77435443,9.62558144 L7.77435442,1.26190224 C7.77435442,0.708332493 8.2253296,0.259575546 8.76513239,0.259575546 L12.7835765,0.259575546 C13.330768,0.259575546 13.7743544,0.708495751 13.7743544,1.26705952 L13.7743544,14.2520916 C13.7743544,14.8085096 13.3233792,15.2595755 12.7835765,15.2595755 L8.76513239,15.2595755 C8.21794083,15.2595755 7.77435442,14.8076164 7.77435442,14.25873 L7.77435443,11.03635 Z M10.6933093,3.10057663 C11.2455941,3.10057663 11.6933093,2.65286138 11.6933093,2.10057663 C11.6933093,1.54829188 11.2455941,1.10057663 10.6933093,1.10057663 C10.1410246,1.10057663 9.69330932,1.54829188 9.69330932,2.10057663 C9.69330932,2.65286138 10.1410246,3.10057663 10.6933093,3.10057663 Z M10.960197,7.41724788 C11.7886241,7.41724788 12.460197,6.745675 12.460197,5.91724788 C12.460197,5.08882075 11.7886241,4.41724788 10.960197,4.41724788 C10.1317698,4.41724788 9.46019697,5.08882075 9.46019697,5.91724788 C9.46019697,6.745675 10.1317698,7.41724788 10.960197,7.41724788 Z" id="path-13"></path>
        <filter x="-50%" y="-50%" width="200%" height="200%" filterUnits="objectBoundingBox" id="filter-14">
            <feMorphology radius="2" operator="erode" in="SourceAlpha" result="shadowSpreadInner1"></feMorphology>
            <feGaussianBlur stdDeviation="2" in="shadowSpreadInner1" result="shadowBlurInner1"></feGaussianBlur>
            <feOffset dx="0" dy="0" in="shadowBlurInner1" result="shadowOffsetInner1"></feOffset>
            <feComposite in="shadowOffsetInner1" in2="SourceAlpha" operator="arithmetic" k2="-1" k3="1" result="shadowInnerInner1"></feComposite>
            <feColorMatrix values="0 0 0 0 0.901960784   0 0 0 0 0.901960784   0 0 0 0 0.901960784  0 0 0 0.5 0" type="matrix" in="shadowInnerInner1"></feColorMatrix>
        </filter>
        <path d="M7.77435443,11.03635 L0.614600234,11.4309527 L0.614600234,10.0201833 L7.77435443,9.62558144 L7.77435442,1.26190224 C7.77435442,0.708332493 8.2253296,0.259575546 8.76513239,0.259575546 L12.7835765,0.259575546 C13.330768,0.259575546 13.7743544,0.708495751 13.7743544,1.26705952 L13.7743544,14.2520916 C13.7743544,14.8085096 13.3233792,15.2595755 12.7835765,15.2595755 L8.76513239,15.2595755 C8.21794083,15.2595755 7.77435442,14.8076164 7.77435442,14.25873 L7.77435443,11.03635 Z M10.6933093,3.10057663 C11.2455941,3.10057663 11.6933093,2.65286138 11.6933093,2.10057663 C11.6933093,1.54829188 11.2455941,1.10057663 10.6933093,1.10057663 C10.1410246,1.10057663 9.69330932,1.54829188 9.69330932,2.10057663 C9.69330932,2.65286138 10.1410246,3.10057663 10.6933093,3.10057663 Z M10.960197,7.41724788 C11.7886241,7.41724788 12.460197,6.745675 12.460197,5.91724788 C12.460197,5.08882075 11.7886241,4.41724788 10.960197,4.41724788 C10.1317698,4.41724788 9.46019697,5.08882075 9.46019697,5.91724788 C9.46019697,6.745675 10.1317698,7.41724788 10.960197,7.41724788 Z" id="path-15"></path>
        <filter x="-50%" y="-50%" width="200%" height="200%" filterUnits="objectBoundingBox" id="filter-16">
            <feMorphology radius="1" operator="erode" in="SourceAlpha" result="shadowSpreadInner1"></feMorphology>
            <feGaussianBlur stdDeviation="1.5" in="shadowSpreadInner1" result="shadowBlurInner1"></feGaussianBlur>
            <feOffset dx="0" dy="0" in="shadowBlurInner1" result="shadowOffsetInner1"></feOffset>
            <feComposite in="shadowOffsetInner1" in2="SourceAlpha" operator="arithmetic" k2="-1" k3="1" result="shadowInnerInner1"></feComposite>
            <feColorMatrix values="0 0 0 0 0.305590986   0 0 0 0 0.305590986   0 0 0 0 0.305590986  0 0 0 0.5 0" type="matrix" in="shadowInnerInner1"></feColorMatrix>
        </filter>
        <rect id="path-17" x="0.800338596" y="0.696302064" width="15" height="10" rx="1"></rect>
        <filter x="-50%" y="-50%" width="200%" height="200%" filterUnits="objectBoundingBox" id="filter-18">
            <feMorphology radius="2" operator="erode" in="SourceAlpha" result="shadowSpreadInner1"></feMorphology>
            <feGaussianBlur stdDeviation="2" in="shadowSpreadInner1" result="shadowBlurInner1"></feGaussianBlur>
            <feOffset dx="0" dy="0" in="shadowBlurInner1" result="shadowOffsetInner1"></feOffset>
            <feComposite in="shadowOffsetInner1" in2="SourceAlpha" operator="arithmetic" k2="-1" k3="1" result="shadowInnerInner1"></feComposite>
            <feColorMatrix values="0 0 0 0 0.901960784   0 0 0 0 0.901960784   0 0 0 0 0.901960784  0 0 0 0.5 0" type="matrix" in="shadowInnerInner1"></feColorMatrix>
        </filter>
        <rect id="path-19" x="0.800338596" y="1" width="15" height="9" rx="1"></rect>
        <filter x="-50%" y="-50%" width="200%" height="200%" filterUnits="objectBoundingBox" id="filter-20">
            <feMorphology radius="1" operator="erode" in="SourceAlpha" result="shadowSpreadInner1"></feMorphology>
            <feGaussianBlur stdDeviation="1.5" in="shadowSpreadInner1" result="shadowBlurInner1"></feGaussianBlur>
            <feOffset dx="0" dy="0" in="shadowBlurInner1" result="shadowOffsetInner1"></feOffset>
            <feComposite in="shadowOffsetInner1" in2="SourceAlpha" operator="arithmetic" k2="-1" k3="1" result="shadowInnerInner1"></feComposite>
            <feColorMatrix values="0 0 0 0 0.305590986   0 0 0 0 0.305590986   0 0 0 0 0.305590986  0 0 0 0.5 0" type="matrix" in="shadowInnerInner1"></feColorMatrix>
        </filter>
        <polygon id="path-21" points="5.15356925 6.09675864 0.982699875 11.1048764 1.80001331 10.4746848 10.4492895 8.48043021 22.9348966 5.01901428 34.9520602 2.05198534 31.9826999 2.51066928 26.0508688 -0.000149646758"></polygon>
        <rect id="path-23" x="0.761600292" y="0.97193942" width="15" height="10" rx="1"></rect>
        <filter x="-50%" y="-50%" width="200%" height="200%" filterUnits="objectBoundingBox" id="filter-24">
            <feMorphology radius="1" operator="erode" in="SourceAlpha" result="shadowSpreadInner1"></feMorphology>
            <feGaussianBlur stdDeviation="1.5" in="shadowSpreadInner1" result="shadowBlurInner1"></feGaussianBlur>
            <feOffset dx="0" dy="0" in="shadowBlurInner1" result="shadowOffsetInner1"></feOffset>
            <feComposite in="shadowOffsetInner1" in2="SourceAlpha" operator="arithmetic" k2="-1" k3="1" result="shadowInnerInner1"></feComposite>
            <feColorMatrix values="0 0 0 0 0.305590986   0 0 0 0 0.305590986   0 0 0 0 0.305590986  0 0 0 0.5 0" type="matrix" in="shadowInnerInner1"></feColorMatrix>
        </filter>
        <polygon id="path-25" points="1.05183874e-14 10.0923843 1.98967487 15 35.9183389 4.85657403 37 -2.25123739e-14"></polygon>
        <path d="M0.761600292,1.97272041 C0.761600292,1.42000433 1.2105205,0.97193942 1.76908427,0.97193942 L14.7541163,0.97193942 C15.3105344,0.97193942 15.7616003,1.42171456 15.7616003,1.97272041 L15.7616003,9.84191299 C15.7616003,10.3946291 15.350352,11.013604 14.8444361,11.2238568 L12.051255,12.3846706 L4.77114848,12.3846706 L1.69154921,11.2003302 C1.17795261,11.0028132 0.761600292,10.3929188 0.761600292,9.84191299 L0.761600292,1.97272041 Z" id="path-27"></path>
        <filter x="-50%" y="-50%" width="200%" height="200%" filterUnits="objectBoundingBox" id="filter-28">
            <feMorphology radius="1" operator="erode" in="SourceAlpha" result="shadowSpreadInner1"></feMorphology>
            <feGaussianBlur stdDeviation="1.5" in="shadowSpreadInner1" result="shadowBlurInner1"></feGaussianBlur>
            <feOffset dx="0" dy="0" in="shadowBlurInner1" result="shadowOffsetInner1"></feOffset>
            <feComposite in="shadowOffsetInner1" in2="SourceAlpha" operator="arithmetic" k2="-1" k3="1" result="shadowInnerInner1"></feComposite>
            <feColorMatrix values="0 0 0 0 0.305590986   0 0 0 0 0.305590986   0 0 0 0 0.305590986  0 0 0 0.5 0" type="matrix" in="shadowInnerInner1"></feColorMatrix>
        </filter>
    </defs>
    <g id="Page-1" stroke="none" stroke-width="1" fill="none" fill-rule="evenodd">
        <g id="Logo" transform="translate(-13.000000, -5.000000)">
            <g id="Clear-Label" transform="translate(48.000000, 48.000000)" fill="#F8F7F5">
                <circle id="Oval-3-Copy" cx="42" cy="34" r="2"></circle>
            </g>
            <use id="Combined-Shape" stroke="#333333" mask="url(#mask-2)" stroke-width="6" fill="#363636" xlink:href="#path-1"></use>
            <path d="M90,115 C108.225397,115 123,100.225397 123,82 C123,63.7746033 108.225397,49 90,49 C71.7746033,49 57,63.7746033 57,82 C57,100.225397 71.7746033,115 90,115 Z M90,102 C101.045695,102 110,93.045695 110,82 C110,70.954305 101.045695,62 90,62 C78.954305,62 70,70.954305 70,82 C70,93.045695 78.954305,102 90,102 Z" id="Combined-Shape" fill="#333333"></path>
            <g id="Counterweight-shadow" fill-opacity="1" fill="black">
                <use filter="url(#filter-4)" xlink:href="#path-3"></use>
            </g>
            <g id="Tonearm" transform="translate(33.726245, 62.705776) rotate(4.000000) translate(-33.726245, -62.705776) translate(15.226245, 10.705776)">
                <g id="Combined-Shape">
                    <use fill="black" fill-opacity="1" filter="url(#filter-6)" xlink:href="#path-5"></use>
                    <use fill="#FAFAFA" fill-rule="evenodd" xlink:href="#path-5"></use>
                </g>
                <g id="Combined-Shape-Copy-2" fill-opacity="1" fill="black">
                    <use filter="url(#filter-8)" xlink:href="#path-7"></use>
                </g>
                <g id="Combined-Shape-Copy-3" fill-opacity="1" fill="black">
                    <use filter="url(#filter-10)" xlink:href="#path-9"></use>
                </g>
            </g>
            <g id="Needle" transform="translate(48.809208, 121.569800) rotate(-21.000000) translate(-48.809208, -121.569800) translate(38.809208, 110.569800)">
                <g id="Core" transform="translate(9.978168, 11.091989) rotate(-20.000000) translate(-9.978168, -11.091989) translate(2.978168, 2.591989)">
                    <polygon id="Combined-Shape-Copy" fill="#008402" points="8.2392627 13.6527401 13.2392627 10.3945314 13.2392627 16.3945313 8.2392627 16.3945314"></polygon>
                    <g id="Combined-Shape">
                        <use fill="black" fill-opacity="1" filter="url(#filter-12)" xlink:href="#path-11"></use>
                        <use fill="#FAFAFA" fill-rule="evenodd" xlink:href="#path-11"></use>
                    </g>
                    <g id="Combined-Shape-Copy-4" fill-opacity="1" fill="black">
                        <use filter="url(#filter-14)" xlink:href="#path-13"></use>
                    </g>
                    <g id="Combined-Shape-Copy-5" fill-opacity="1" fill="black">
                        <use filter="url(#filter-16)" xlink:href="#path-15"></use>
                    </g>
                </g>
            </g>
            <g id="Counterweight" transform="translate(24.242506, 17.137487) rotate(-1.000000) translate(-24.242506, -17.137487) translate(1.242506, 1.137487)">
                <g id="Core" transform="translate(20.096504, 10.578690) rotate(-15.000000) translate(-20.096504, -10.578690) translate(12.096504, 5.078690)">
                    <rect id="Rectangle-8" fill="#FAFAFA" x="0.800338596" y="0.696302064" width="15" height="10" rx="1"></rect>
                    <g id="Rectangle-8-Copy" fill-opacity="1" fill="black">
                        <use filter="url(#filter-18)" xlink:href="#path-17"></use>
                    </g>
                    <g id="Rectangle-8-Copy-2" fill-opacity="1" fill="black">
                        <use filter="url(#filter-20)" xlink:href="#path-19"></use>
                    </g>
                </g>
                <g id="Top-Knob" transform="translate(3.032468, 1.070082)">
                    <mask id="mask-22" fill="white">
                        <use xlink:href="#path-21"></use>
                    </mask>
                    <g id="Mask"></g>
                    <g id="Core-Copy" mask="url(#mask-22)">
                        <g transform="translate(17.030114, 9.232336) rotate(-15.000000) translate(-17.030114, -9.232336) translate(9.030114, 3.732336)">
                            <rect id="Rectangle-8" fill="#333333" fill-rule="evenodd" x="0.761600292" y="0.97193942" width="15" height="10" rx="1"></rect>
                            <g id="Rectangle-8-Copy-2" fill="none" opacity="0.328824627" fill-opacity="1">
                                <use fill="black" filter="url(#filter-24)" xlink:href="#path-23"></use>
                            </g>
                        </g>
                    </g>
                </g>
                <g id="Bottom-Knob" transform="translate(3.891174, 8.173565)">
                    <mask id="mask-26" fill="white">
                        <use xlink:href="#path-25"></use>
                    </mask>
                    <g id="Mask"></g>
                    <g id="Core-Copy" mask="url(#mask-26)">
                        <g transform="translate(16.430227, 3.094779) rotate(-15.000000) translate(-16.430227, -3.094779) translate(8.430227, -3.405221)">
                            <path d="M0.761600292,1.97272041 C0.761600292,1.42000433 1.2105205,0.97193942 1.76908427,0.97193942 L14.7541163,0.97193942 C15.3105344,0.97193942 15.7616003,1.42171456 15.7616003,1.97272041 L15.7616003,9.84191299 C15.7616003,10.3946291 15.350352,11.013604 14.8444361,11.2238568 L12.051255,12.3846706 L4.77114848,12.3846706 L1.69154921,11.2003302 C1.17795261,11.0028132 0.761600292,10.3929188 0.761600292,9.84191299 L0.761600292,1.97272041 Z" id="Rectangle-8" fill="#333333" fill-rule="evenodd"></path>
                            <g id="Rectangle-8-Copy-3" fill="none" opacity="0.328824627" fill-opacity="1">
                                <use fill="black" filter="url(#filter-28)" xlink:href="#path-27"></use>
                            </g>
                        </g>
                    </g>
                </g>
            </g>
        </g>
    </g>
</svg>