<?xml version="1.0" standalone="no"?><!DOCTYPE svg PUBLIC "-//W3C//DTD SVG 1.1//EN" "http://www.w3.org/Graphics/SVG/1.1/DTD/svg11.dtd"><svg width="100%" height="100%" viewBox="0 0 4 4" version="1.1" xmlns="http://www.w3.org/2000/svg" xmlns:xlink="http://www.w3.org/1999/xlink" xml:space="preserve" style="fill-rule:evenodd;clip-rule:evenodd;stroke-linejoin:round;stroke-miterlimit:1.41421;"><path d="M2.04,0.24c0.993,0 1.8,0.807 1.8,1.8c0,0.993 -0.807,1.8 -1.8,1.8c-0.993,0 -1.8,-0.807 -1.8,-1.8c0,-0.993 0.807,-1.8 1.8,-1.8ZM2.04,1.371c0.369,0 0.669,0.3 0.669,0.669c0,0.369 -0.3,0.669 -0.669,0.669c-0.369,0 -0.669,-0.3 -0.669,-0.669c0,-0.369 0.3,-0.669 0.669,-0.669Z" style="fill:#000;stroke-width:0.24px;stroke:#000;"/><path d="M0.843,2.987c-0.011,-0.071 -0.677,-2.505 -0.72,-2.858" style="fill:none;stroke-width:0.5px;stroke-linecap:round;stroke:#000;"/></svg>